<mxfile host="app.diagrams.net" modified="2023-09-08T12:36:12.416Z" agent="Mozilla/5.0 (Windows NT 10.0; Win64; x64) AppleWebKit/537.36 (KHTML, like Gecko) Chrome/116.0.0.0 Safari/537.36" version="21.6.9" etag="kJZApdZrPJcR71pE5G_7" type="github">
  <diagram name="Halaman-1" id="TApRasfFDobYO81H4dBj">
    <mxGraphModel>
      <root>
        <mxCell id="0" />
        <mxCell id="1" parent="0" />
      </root>
    </mxGraphModel>
  </diagram>
</mxfile>
